<svg xmlns="http://www.w3.org/2000/svg" width="38" height="38" fill="none"><path fill="#fff" d="M17.017 35.668q.147-1.554.148-2.96.073-1.406.073-2.294V20.202H7.692q-1.332 0-3.034.074-1.702 0-2.59.148H1.92q-.591 0-.962-.74a3.9 3.9 0 0 1-.37-1.628q0-1.554 1.11-1.554 1.11.075 2.664.148H17.24V7.548q0-1.776-.075-3.33 0-1.628-.074-2.738 0-.592.445-.814A1.82 1.82 0 0 1 18.57.37q.815 0 1.628.37.814.37.814.962v.148q-.073.888-.148 2.59a71 71 0 0 0-.073 3.034v9.176h9.694q.813 0 2.22-.074 1.48-.075 3.034-.148h.074q.666 0 1.035.74.445.74.444 1.554 0 .593-.296 1.11-.222.444-.814.444h-3.33a55 55 0 0 0-2.441-.074h-9.62V32.93q.073 1.48.073 3.182 0 .518-.518.814a1.82 1.82 0 0 1-1.035.296 3.4 3.4 0 0 1-1.555-.37q-.74-.444-.74-1.11z"/></svg>