<svg xmlns="http://www.w3.org/2000/svg" width="40" height="40" fill="none"><g clip-path="url(#a)"><path fill="#050A10" fill-rule="evenodd" d="M37.5 31.25c0 1.38-1.159 2.07-2.5 2.5 0 0-6.804 1.894-13.75 3.721V6.25L35 2.5A2.5 2.5 0 0 1 37.5 5zm-18.75 6.248C11.922 35.663 5 33.75 5 33.75c-1.42-.39-2.5-1.12-2.5-2.5V5A2.5 2.5 0 0 1 5 2.5l13.75 3.75zM35 0s-7.236 1.993-13.812 3.75c-.824.031-1.654 0-2.48 0C12.445 2.07 5 0 5 0a5 5 0 0 0-5 5v26.25c0 2.761 2.356 4.141 5 5 0 0 6.741 1.875 13.709 3.75h2.531C28.265 38.125 35 36.25 35 36.25c2.566-.664 5-2.239 5-5V5a5 5 0 0 0-5-5" clip-rule="evenodd"/></g><defs><clipPath id="a"><path fill="#fff" d="M0 0h40v40H0z"/></clipPath></defs></svg>