<svg width="41" height="41" viewBox="0 0 41 41" fill="none" xmlns="http://www.w3.org/2000/svg">
<g clip-path="url(#clip0_659_788)">
<path fill-rule="evenodd" clip-rule="evenodd" d="M20.1548 33.457C18.6948 33.457 17.2848 33.287 15.9298 32.9983L10.0448 36.5358L10.1235 30.737C5.61229 28.0245 2.65479 23.5395 2.65479 18.457C2.65479 10.1733 10.4898 3.45703 20.1548 3.45703C29.8198 3.45703 37.6548 10.1733 37.6548 18.457C37.6548 26.742 29.8198 33.457 20.1548 33.457ZM20.1548 0.957031C9.10979 0.957031 0.154785 8.79328 0.154785 18.457C0.154785 23.9808 3.08604 28.8995 7.65479 32.1058V40.957L16.416 35.6408C17.6285 35.8408 18.876 35.957 20.1548 35.957C31.1998 35.957 40.1548 28.122 40.1548 18.457C40.1548 8.79328 31.1998 0.957031 20.1548 0.957031ZM28.9048 14.707H11.4048C10.7148 14.707 10.1548 15.267 10.1548 15.957C10.1548 16.6483 10.7148 17.207 11.4048 17.207H28.9048C29.5948 17.207 30.1548 16.6483 30.1548 15.957C30.1548 15.267 29.5948 14.707 28.9048 14.707ZM26.4048 22.207H13.9048C13.2148 22.207 12.6548 22.7658 12.6548 23.457C12.6548 24.1483 13.2148 24.707 13.9048 24.707H26.4048C27.0948 24.707 27.6548 24.1483 27.6548 23.457C27.6548 22.7658 27.0948 22.207 26.4048 22.207Z" fill="white"/>
</g>
<defs>
<clipPath id="clip0_659_788">
<rect width="40" height="40" fill="white" transform="translate(0.154785 0.957031)"/>
</clipPath>
</defs>
</svg>
