<svg width="53" height="53" viewBox="0 0 53 53" fill="none" xmlns="http://www.w3.org/2000/svg">
<path d="M37.1515 39.4565C36.4888 38.6542 35.826 37.9216 35.1632 37.2588C34.5353 36.5612 34.012 36.003 33.5934 35.5844L26.3724 28.3634L19.6224 35.1135C18.9945 35.7414 18.2968 36.4739 17.5293 37.3112C16.727 38.1135 16.1514 38.7588 15.8026 39.2472L15.6979 39.3519C15.4189 39.6309 15.0177 39.6833 14.4944 39.5089C13.9363 39.2995 13.4654 39.003 13.0816 38.6193C12.3491 37.8867 12.2444 37.2588 12.7677 36.7356C13.3258 36.2472 13.9886 35.6542 14.7561 34.9565C15.5235 34.1891 16.3258 33.3867 17.1631 32.5495L23.8608 25.8518L17.4247 19.4157C16.5875 18.5785 15.7851 17.811 15.0177 17.1134C14.2502 16.3459 13.5875 15.718 13.0293 15.2296C12.7502 14.9506 12.663 14.654 12.7677 14.3401C12.8374 13.9913 13.0119 13.6773 13.2909 13.3982C13.6747 13.0145 14.1456 12.718 14.7037 12.5087C15.2619 12.2994 15.6805 12.3343 15.9596 12.6133L16.0642 12.718C16.4479 13.1715 17.0235 13.8168 17.791 14.654C18.5584 15.4913 19.2561 16.2238 19.884 16.8517L26.3724 23.3401L33.2271 16.4855C33.6108 16.1017 34.1166 15.561 34.7446 14.8634C35.4074 14.1308 36.0876 13.3808 36.7853 12.6133L36.8376 12.561C37.1515 12.2471 37.5702 12.1773 38.0934 12.3517C38.6516 12.4912 39.1225 12.7529 39.5062 13.1366C39.7853 13.4157 39.9771 13.7471 40.0818 14.1308C40.1865 14.4447 40.0992 14.7413 39.8202 15.0203C39.0178 15.8227 38.233 16.6075 37.4655 17.375C36.6981 18.0727 36.105 18.6308 35.6864 19.0494L28.8841 25.8518L36.0527 33.0204C36.5411 33.5088 37.1515 34.1193 37.8841 34.8518C38.6167 35.5146 39.3841 36.2472 40.1865 37.0495C40.4306 37.2937 40.5004 37.6077 40.3958 37.9914C40.326 38.3402 40.1516 38.6542 39.8725 38.9333C39.4888 39.317 39.0353 39.5961 38.512 39.7705C37.9539 39.91 37.5178 39.8228 37.2039 39.5089L37.1515 39.4565Z" fill="white"/>
</svg>
