<svg width="36" height="36" viewBox="0 0 36 36" fill="none" xmlns="http://www.w3.org/2000/svg">
<g clip-path="url(#clip0_232_143)">
<path d="M25.3227 21.4923L23.7761 19.9458L26.8692 16.8504C29.433 14.2889 29.7786 10.4804 27.6436 8.34326C25.5064 6.20826 21.698 6.55389 19.1342 9.11764L16.0433 12.2108L14.4967 10.6642L17.5898 7.57107C21.0089 4.1542 26.202 3.80857 29.1924 6.7967C32.1827 9.78701 31.8349 14.9801 28.418 18.3992L25.3248 21.4923H25.3227ZM22.2295 24.5854L19.1364 27.6786C15.7173 31.0954 10.5242 31.4411 7.53391 28.4529C4.5436 25.4626 4.89141 20.2695 8.30829 16.8504L11.4014 13.7573L12.948 15.3039L9.85485 18.3992C7.2911 20.9608 6.94547 24.7692 9.08047 26.9064C11.2177 29.0414 15.0261 28.6958 17.5898 26.132L20.683 23.0389L22.2295 24.5854ZM22.2295 12.2108L23.7761 13.7573L14.4945 23.0389L12.948 21.4923L22.2295 12.2108Z" fill="white"/>
<path d="M25.3227 21.4923L23.7761 19.9458L26.8692 16.8504C29.433 14.2889 29.7786 10.4804 27.6436 8.34326C25.5064 6.20826 21.698 6.55389 19.1342 9.11764L16.0433 12.2108L14.4967 10.6642L17.5898 7.57107C21.0089 4.1542 26.202 3.80857 29.1924 6.7967C32.1827 9.78701 31.8349 14.9801 28.418 18.3992L25.3248 21.4923H25.3227ZM22.2295 24.5854L19.1364 27.6786C15.7173 31.0954 10.5242 31.4411 7.53391 28.4529C4.5436 25.4626 4.89141 20.2695 8.30829 16.8504L11.4014 13.7573L12.948 15.3039L9.85485 18.3992C7.2911 20.9608 6.94547 24.7692 9.08047 26.9064C11.2177 29.0414 15.0261 28.6958 17.5898 26.132L20.683 23.0389L22.2295 24.5854ZM22.2295 12.2108L23.7761 13.7573L14.4945 23.0389L12.948 21.4923L22.2295 12.2108Z" fill="white"/>
</g>
<defs>
<clipPath id="clip0_232_143">
<rect width="35" height="35" fill="white" transform="translate(0.861328 0.125)"/>
</clipPath>
</defs>
</svg>
