<svg width="101" height="104" viewBox="0 0 101 104" fill="none" xmlns="http://www.w3.org/2000/svg">
<path fill-rule="evenodd" clip-rule="evenodd" d="M21.3642 32.6428C24.0384 32.6428 26.2029 34.8106 26.2029 37.4815C26.2029 40.1557 24.0384 42.3203 21.3642 42.3203C18.69 42.3203 16.5255 40.1557 16.5255 37.4815C16.5255 34.8106 18.69 32.6428 21.3642 32.6428ZM40.7191 32.6428C43.3933 32.6428 45.5578 34.8106 45.5578 37.4815C45.5578 40.1557 43.3933 42.3203 40.7191 42.3203C38.0449 42.3203 35.8804 40.1557 35.8804 37.4815C35.8804 34.8106 38.0449 32.6428 40.7191 32.6428ZM60.0739 32.6428C62.7481 32.6428 64.9126 34.8106 64.9126 37.4815C64.9126 40.1557 62.7481 42.3203 60.0739 42.3203C57.3997 42.3203 55.2352 40.1557 55.2352 37.4815C55.2352 34.8106 57.3997 32.6428 60.0739 32.6428ZM31.4836 73.7267C33.99 74.1364 39.69 74.5783 42.332 74.5783C65.4933 74.5783 81.0416 57.3428 81.0416 37.0783C81.0416 16.8138 61.6126 0.384766 42.332 0.384766C19.1416 0.384766 0.396484 16.8138 0.396484 37.0783C0.396484 48.8203 4.87068 58.7848 13.2997 65.9622V84.2557L31.4836 73.7267ZM87.3288 29.8654L87.4933 32.6428C87.5191 35.2783 87.4933 35.0364 87.4933 37.4815C87.4933 63.2073 67.2223 81.0299 39.1062 81.0299H29.4287C37.1062 88.5396 46.0384 93.1267 58.461 93.1267C61.1029 93.1267 63.6803 92.888 66.1868 92.4783L84.2675 103.611V85.3171C94.0739 78.5977 100.396 68.1751 100.396 56.4332C100.396 45.9686 95.361 36.5493 87.3288 29.8654Z" fill="white"/>
</svg>
