<svg width="30" height="47" viewBox="0 0 30 47" fill="none" xmlns="http://www.w3.org/2000/svg">
<path fill-rule="evenodd" clip-rule="evenodd" d="M27.2727 36.946C27.2727 40.5465 24.2755 43.4659 20.5786 43.4659H9.42136C5.72454 43.4659 2.72727 40.5465 2.72727 36.946V32.5994C2.72727 29.5192 4.92681 26.9547 7.87499 26.2722C9.88636 27.9689 12.3409 28.9773 15 28.9773C17.6591 28.9773 20.1136 27.9689 22.125 26.2722C25.0732 26.9547 27.2727 29.5192 27.2727 32.5994V36.946ZM5.45455 14.4886C5.45455 8.08756 9.72818 2.89773 15 2.89773C20.2718 2.89773 24.5455 8.08756 24.5455 14.4886C24.5455 20.8897 20.2718 26.0796 15 26.0796C9.72818 26.0796 5.45455 20.8897 5.45455 14.4886ZM24.4786 23.6933C26.2227 21.1896 27.2727 17.9833 27.2727 14.4886C27.2727 6.48801 21.7786 0 15 0C8.22136 0 2.72727 6.48801 2.72727 14.4886C2.72727 17.9833 3.77729 21.1896 5.52138 23.6933C2.31683 24.8697 0 28.0688 0 31.875V37.6705C0 42.4706 3.66409 46.3637 8.18182 46.3637H21.8182C26.3359 46.3637 30 42.4706 30 37.6705V31.875C30 28.0688 27.6832 24.8697 24.4786 23.6933Z" fill="#050A10"/>
</svg>
