<svg width="30" height="47" viewBox="0 0 30 47" fill="none" xmlns="http://www.w3.org/2000/svg">
<mask id="path-1-inside-1_647_587" fill="white">
<path fill-rule="evenodd" clip-rule="evenodd" d="M27.2727 36.946C27.2727 40.5465 24.2755 43.4659 20.5786 43.4659H9.42136C5.72454 43.4659 2.72727 40.5465 2.72727 36.946V32.5994C2.72727 29.5192 4.92681 26.9547 7.87499 26.2722C9.88636 27.9689 12.3409 28.9773 15 28.9773C17.6591 28.9773 20.1136 27.9689 22.125 26.2722C25.0732 26.9547 27.2727 29.5192 27.2727 32.5994V36.946ZM5.45455 14.4886C5.45455 8.08756 9.72818 2.89773 15 2.89773C20.2718 2.89773 24.5455 8.08756 24.5455 14.4886C24.5455 20.8897 20.2718 26.0796 15 26.0796C9.72818 26.0796 5.45455 20.8897 5.45455 14.4886ZM24.4786 23.6933C26.2227 21.1896 27.2727 17.9833 27.2727 14.4886C27.2727 6.48801 21.7786 0 15 0C8.22136 0 2.72727 6.48801 2.72727 14.4886C2.72727 17.9833 3.77729 21.1896 5.52138 23.6933C2.31683 24.8697 0 28.0688 0 31.875V37.6705C0 42.4706 3.66409 46.3637 8.18182 46.3637H21.8182C26.3359 46.3637 30 42.4706 30 37.6705V31.875C30 28.0688 27.6832 24.8697 24.4786 23.6933Z"/>
</mask>
<path fill-rule="evenodd" clip-rule="evenodd" d="M27.2727 36.946C27.2727 40.5465 24.2755 43.4659 20.5786 43.4659H9.42136C5.72454 43.4659 2.72727 40.5465 2.72727 36.946V32.5994C2.72727 29.5192 4.92681 26.9547 7.87499 26.2722C9.88636 27.9689 12.3409 28.9773 15 28.9773C17.6591 28.9773 20.1136 27.9689 22.125 26.2722C25.0732 26.9547 27.2727 29.5192 27.2727 32.5994V36.946ZM5.45455 14.4886C5.45455 8.08756 9.72818 2.89773 15 2.89773C20.2718 2.89773 24.5455 8.08756 24.5455 14.4886C24.5455 20.8897 20.2718 26.0796 15 26.0796C9.72818 26.0796 5.45455 20.8897 5.45455 14.4886ZM24.4786 23.6933C26.2227 21.1896 27.2727 17.9833 27.2727 14.4886C27.2727 6.48801 21.7786 0 15 0C8.22136 0 2.72727 6.48801 2.72727 14.4886C2.72727 17.9833 3.77729 21.1896 5.52138 23.6933C2.31683 24.8697 0 28.0688 0 31.875V37.6705C0 42.4706 3.66409 46.3637 8.18182 46.3637H21.8182C26.3359 46.3637 30 42.4706 30 37.6705V31.875C30 28.0688 27.6832 24.8697 24.4786 23.6933Z" fill="white"/>
<path d="M7.87499 26.2722L23.9942 7.16277L14.4288 -0.905759L2.23731 1.91621L7.87499 26.2722ZM22.125 26.2722L27.7627 1.91621L15.5712 -0.905759L6.00583 7.16277L22.125 26.2722ZM24.4786 23.6933L3.96533 9.40324L-14.558 35.9934L15.8627 47.1617L24.4786 23.6933ZM5.52138 23.6933L14.1373 47.1617L44.558 35.9934L26.0347 9.40324L5.52138 23.6933ZM2.27273 36.946C2.27273 26.1225 11.0933 18.4659 20.5786 18.4659V68.4659C37.4576 68.4659 52.2727 54.9704 52.2727 36.946H2.27273ZM20.5786 18.4659H9.42136V68.4659H20.5786V18.4659ZM9.42136 18.4659C18.9067 18.4659 27.7273 26.1225 27.7273 36.946H-22.2727C-22.2727 54.9704 -7.45757 68.4659 9.42136 68.4659V18.4659ZM27.7273 36.946V32.5994H-22.2727V36.946H27.7273ZM27.7273 32.5994C27.7273 41.95 21.1062 48.8706 13.5127 50.6283L2.23731 1.91621C-11.2526 5.03871 -22.2727 17.0883 -22.2727 32.5994H27.7273ZM-8.24418 45.3817C-2.26476 50.4255 5.76928 53.9773 15 53.9773V3.97728C18.9125 3.97728 22.0375 5.51226 23.9942 7.16277L-8.24418 45.3817ZM15 53.9773C24.2307 53.9773 32.2648 50.4255 38.2442 45.3817L6.00583 7.16277C7.96253 5.51226 11.0875 3.97728 15 3.97728V53.9773ZM16.4873 50.6283C8.89382 48.8706 2.27273 41.95 2.27273 32.5994H52.2727C52.2727 17.0883 41.2526 5.03871 27.7627 1.91621L16.4873 50.6283ZM2.27273 32.5994V36.946H52.2727V32.5994H2.27273ZM30.4545 14.4886C30.4545 16.7539 29.7135 19.5566 27.5488 22.1852C25.3411 24.8661 21.0269 27.8977 15 27.8977V-22.1023C-8.40102 -22.1023 -19.5455 -0.958961 -19.5455 14.4886H30.4545ZM15 27.8977C8.97309 27.8977 4.65894 24.8661 2.45121 22.1852C0.286547 19.5566 -0.454545 16.7539 -0.454545 14.4886H49.5455C49.5455 -0.958961 38.401 -22.1023 15 -22.1023V27.8977ZM-0.454545 14.4886C-0.454545 12.2234 0.286547 9.42064 2.45121 6.79206C4.65894 4.11118 8.97309 1.07955 15 1.07955V51.0796C38.401 51.0796 49.5455 29.9362 49.5455 14.4886H-0.454545ZM15 1.07955C21.0269 1.07955 25.3411 4.11118 27.5488 6.79206C29.7135 9.42064 30.4545 12.2234 30.4545 14.4886H-19.5455C-19.5455 29.9362 -8.40102 51.0796 15 51.0796V1.07955ZM44.9919 37.9833C49.7335 31.1767 52.2727 22.9574 52.2727 14.4886H2.27273C2.27273 13.0092 2.7119 11.2025 3.96533 9.40324L44.9919 37.9833ZM52.2727 14.4886C52.2727 -3.26597 39.317 -25 15 -25V25C10.0033 25 6.41738 22.5458 4.60147 20.4018C2.83095 18.3114 2.27273 16.1418 2.27273 14.4886H52.2727ZM15 -25C-9.31698 -25 -22.2727 -3.26597 -22.2727 14.4886H27.7273C27.7273 16.1418 27.169 18.3114 25.3985 20.4018C23.5826 22.5458 19.9967 25 15 25V-25ZM-22.2727 14.4886C-22.2727 22.9574 -19.7335 31.1767 -14.9919 37.9833L26.0347 9.40324C27.2881 11.2025 27.7273 13.0092 27.7273 14.4886H-22.2727ZM-3.09453 0.224862C-16.3827 5.10332 -25 17.844 -25 31.875H25C25 38.2937 21.0164 44.6362 14.1373 47.1617L-3.09453 0.224862ZM-25 31.875V37.6705H25V31.875H-25ZM-25 37.6705C-25 54.8282 -11.5492 71.3636 8.18182 71.3636V21.3637C18.8774 21.3637 25 30.1129 25 37.6705H-25ZM8.18182 71.3636H21.8182V21.3637H8.18182V71.3636ZM21.8182 71.3636C41.5492 71.3636 55 54.8282 55 37.6705H5C5 30.1129 11.1226 21.3637 21.8182 21.3637V71.3636ZM55 37.6705V31.875H5V37.6705H55ZM55 31.875C55 17.844 46.3827 5.10332 33.0945 0.224862L15.8627 47.1617C8.98364 44.6362 5 38.2937 5 31.875H55Z" fill="white" mask="url(#path-1-inside-1_647_587)"/>
</svg>
