<svg xmlns="http://www.w3.org/2000/svg" width="101" height="101" fill="none"><path fill="#fff" fill-rule="evenodd" d="m97.955 11.983-9.258-9.232a6.556 6.556 0 0 0-9.258 0L65.553 21.215c-2.12 3.123-2.554 6.68 0 9.232l5.668 5.652c-4.201 5.629-9.245 11.766-14.923 17.428-6.42 6.4-13.561 12.22-19.982 17l-5.478-5.459c-2.554-2.55-6.121-2.12-9.257 0L3.065 78.916c-3.104 2.139-2.557 6.68 0 9.232l9.258 9.228c5.115 5.102 11.764 3.468 18.515 0 0 0 20.436-11.438 37.932-28.885 16.456-16.412 29.185-38.044 29.185-38.044 2.653-7.28 5.114-13.365 0-18.464" clip-rule="evenodd"/></svg>